<?xml version="1.0" encoding="UTF-8"?>
<svg id="Layer_2" data-name="Layer 2" xmlns="http://www.w3.org/2000/svg" viewBox="0 0 298.39 146.79">
  <defs>
    <style>
      .cls-1 {
        fill: #fff;
      }
    </style>
  </defs>
  <g id="Layer_1-2" data-name="Layer 1">
    <g>
      <path class="cls-1" d="M13,41.43c-7.62,0-12.59-4.38-12.67-4.45l-.33-.3L.14,10.67l1.66,1.5c.45.4,11.16,9.76,25.43-1.64,5.12-4.09,10.24-5.86,15.22-5.23,7.01.88,11.09,6.17,11.26,6.39l.21.27-.14,26.59-1.78-2.33s-3.78-4.86-9.94-5.62c-4.41-.54-9.02,1.08-13.7,4.81-5.71,4.56-10.97,6.01-15.36,6.01ZM2.01,35.77c1.96,1.56,12.04,8.51,25.1-1.92,5.12-4.09,10.23-5.85,15.22-5.23,4.39.55,7.63,2.82,9.48,4.51l.11-20.47c-.86-1-4.39-4.71-9.74-5.37-4.41-.54-9.02,1.08-13.7,4.81-12.29,9.81-22.5,5.23-26.36,2.77l-.11,20.9Z"/>
      <path class="cls-1" d="M13,92.79c-7.62,0-12.59-4.38-12.67-4.45l-.33-.3.14-26,1.66,1.5c.45.4,11.16,9.76,25.43-1.64,5.12-4.09,10.24-5.85,15.22-5.23,7.01.88,11.09,6.17,11.26,6.39l.21.27-.14,26.59-1.78-2.33s-3.78-4.86-9.94-5.62c-4.41-.54-9.02,1.08-13.7,4.81-5.71,4.56-10.97,6.01-15.36,6.01ZM2,87.13c1.96,1.56,12.04,8.51,25.1-1.92,5.12-4.09,10.24-5.86,15.22-5.23,4.39.55,7.63,2.82,9.48,4.51l.11-20.47c-.86-1-4.39-4.71-9.74-5.37-4.41-.54-9.02,1.08-13.7,4.81-12.29,9.81-22.5,5.23-26.36,2.77l-.11,20.9Z"/>
      <path class="cls-1" d="M13,146.79c-7.62,0-12.59-4.38-12.67-4.45l-.33-.3.14-26,1.66,1.5c.45.4,11.16,9.76,25.43-1.64,5.12-4.09,10.24-5.85,15.22-5.23,7.01.88,11.09,6.17,11.26,6.39l.21.27-.14,26.59-1.78-2.33s-3.78-4.86-9.94-5.62c-4.41-.54-9.02,1.08-13.7,4.81-5.71,4.56-10.97,6.01-15.36,6.01ZM2,141.13c1.96,1.56,12.04,8.51,25.1-1.92,5.12-4.09,10.24-5.86,15.22-5.23,4.39.55,7.63,2.82,9.48,4.51l.11-20.47c-.86-1-4.39-4.71-9.74-5.37-4.41-.54-9.02,1.08-13.7,4.81-12.29,9.81-22.5,5.23-26.36,2.77l-.11,20.9Z"/>
      <path class="cls-1" d="M97.47,40.24c-7.62,0-12.59-4.38-12.67-4.45l-.33-.3.14-26,1.66,1.5c.45.4,11.16,9.76,25.43-1.64,5.12-4.09,10.24-5.85,15.22-5.23,7.01.88,11.09,6.17,11.26,6.39l.21.27-.14,26.59-1.78-2.33s-3.78-4.86-9.94-5.62c-4.41-.54-9.02,1.08-13.7,4.81-5.71,4.56-10.97,6.01-15.36,6.01ZM86.48,34.59c1.96,1.56,12.04,8.51,25.1-1.92,5.12-4.09,10.24-5.85,15.22-5.23,4.39.55,7.63,2.82,9.48,4.51l.11-20.47c-.86-1-4.39-4.71-9.74-5.37-4.41-.54-9.02,1.08-13.7,4.81-12.29,9.82-22.5,5.23-26.36,2.77l-.11,20.9Z"/>
      <path class="cls-1" d="M97.47,91.61c-7.62,0-12.59-4.38-12.67-4.45l-.33-.3.14-26,1.66,1.5c.45.4,11.16,9.76,25.43-1.64,5.12-4.09,10.25-5.85,15.22-5.23,7.01.88,11.09,6.17,11.26,6.39l.21.27-.14,26.59-1.78-2.33s-3.78-4.86-9.94-5.62c-4.41-.54-9.02,1.08-13.7,4.81-5.71,4.56-10.97,6.01-15.36,6.01ZM86.48,85.95c1.96,1.56,12.04,8.51,25.1-1.92,5.12-4.09,10.25-5.85,15.22-5.23,4.39.55,7.63,2.83,9.48,4.51l.11-20.47c-.86-1-4.39-4.71-9.74-5.37-4.41-.54-9.02,1.08-13.7,4.81-12.29,9.82-22.5,5.23-26.36,2.77l-.11,20.9Z"/>
      <path class="cls-1" d="M97.47,145.61c-7.62,0-12.59-4.38-12.67-4.45l-.33-.3.14-26,1.66,1.5c.45.4,11.16,9.76,25.43-1.64,5.12-4.09,10.25-5.85,15.22-5.23,7.01.88,11.09,6.17,11.26,6.39l.21.27-.14,26.59-1.78-2.33s-3.78-4.86-9.94-5.62c-4.41-.54-9.02,1.08-13.7,4.81-5.71,4.56-10.97,6.01-15.36,6.01ZM86.48,139.95c1.96,1.56,12.04,8.51,25.1-1.92,5.12-4.09,10.25-5.85,15.22-5.23,4.39.55,7.63,2.83,9.48,4.51l.11-20.47c-.86-1-4.39-4.71-9.74-5.37-4.41-.54-9.02,1.08-13.7,4.81-12.29,9.81-22.5,5.23-26.36,2.77l-.11,20.9Z"/>
      <path class="cls-1" d="M177.47,39.24c-7.62,0-12.59-4.38-12.67-4.45l-.33-.3.14-26,1.66,1.5c.45.4,11.16,9.76,25.43-1.64,5.12-4.09,10.25-5.85,15.22-5.23,7.01.88,11.09,6.17,11.26,6.39l.21.27-.14,26.59-1.78-2.33s-3.78-4.86-9.94-5.62c-4.41-.54-9.02,1.08-13.7,4.81-5.71,4.56-10.97,6.01-15.36,6.01ZM166.48,33.59c1.96,1.56,12.04,8.51,25.1-1.92,5.12-4.09,10.25-5.85,15.22-5.23,4.39.55,7.63,2.82,9.48,4.51l.11-20.47c-.86-1-4.39-4.71-9.74-5.37-4.41-.54-9.02,1.08-13.7,4.81-12.29,9.81-22.5,5.23-26.36,2.77l-.11,20.9Z"/>
      <path class="cls-1" d="M177.47,90.61c-7.62,0-12.59-4.38-12.67-4.45l-.33-.3.14-26,1.66,1.5c.45.4,11.16,9.76,25.43-1.64,5.12-4.09,10.24-5.85,15.22-5.23,7.01.88,11.09,6.17,11.26,6.39l.21.27-.14,26.59-1.78-2.33s-3.78-4.86-9.94-5.62c-4.41-.54-9.02,1.08-13.7,4.81-5.71,4.56-10.97,6.01-15.36,6.01ZM166.48,84.95c1.96,1.56,12.04,8.51,25.1-1.92,5.12-4.09,10.24-5.85,15.22-5.23,4.39.55,7.63,2.83,9.48,4.51l.11-20.47c-.86-1-4.39-4.71-9.74-5.37-4.41-.54-9.02,1.08-13.7,4.81-12.29,9.81-22.5,5.23-26.36,2.77l-.11,20.9Z"/>
      <path class="cls-1" d="M177.47,144.61c-7.62,0-12.59-4.38-12.67-4.45l-.33-.3.14-26,1.66,1.5c.45.4,11.16,9.76,25.43-1.64,5.12-4.09,10.24-5.85,15.22-5.23,7.01.88,11.09,6.17,11.26,6.39l.21.27-.14,26.59-1.78-2.33s-3.78-4.86-9.94-5.62c-4.41-.54-9.02,1.08-13.7,4.81-5.71,4.56-10.97,6.01-15.36,6.01ZM166.48,138.95c1.96,1.56,12.04,8.51,25.1-1.92,5.12-4.09,10.24-5.85,15.22-5.23,4.39.55,7.63,2.83,9.48,4.51l.11-20.47c-.86-1-4.39-4.71-9.74-5.37-4.41-.54-9.02,1.08-13.7,4.81-12.29,9.82-22.5,5.23-26.36,2.77l-.11,20.9Z"/>
      <path class="cls-1" d="M257.47,36.24c-7.62,0-12.59-4.38-12.67-4.45l-.33-.3.14-26,1.66,1.5c.45.4,11.16,9.76,25.43-1.64,5.12-4.09,10.25-5.85,15.22-5.23,7.01.88,11.09,6.17,11.26,6.39l.21.27-.14,26.59-1.78-2.33s-3.78-4.86-9.94-5.62c-4.41-.54-9.02,1.08-13.7,4.81-5.71,4.56-10.97,6.01-15.36,6.01ZM246.48,30.59c1.96,1.56,12.04,8.51,25.1-1.92,5.12-4.09,10.24-5.85,15.22-5.23,4.39.55,7.63,2.82,9.48,4.51l.11-20.47c-.86-1-4.39-4.71-9.74-5.37-4.41-.55-9.02,1.08-13.7,4.81-12.29,9.82-22.5,5.23-26.36,2.77l-.11,20.9Z"/>
      <path class="cls-1" d="M257.47,87.61c-7.62,0-12.59-4.38-12.67-4.45l-.33-.3.14-26,1.66,1.5c.45.4,11.16,9.76,25.43-1.64,5.12-4.09,10.25-5.85,15.22-5.23,7.01.88,11.09,6.17,11.26,6.39l.21.27-.14,26.59-1.78-2.33s-3.78-4.86-9.94-5.62c-4.41-.54-9.02,1.08-13.7,4.81-5.71,4.56-10.97,6.01-15.36,6.01ZM246.48,81.95c1.96,1.56,12.04,8.51,25.1-1.92,5.12-4.09,10.25-5.85,15.22-5.23,4.39.55,7.63,2.83,9.48,4.51l.11-20.47c-.86-1-4.39-4.71-9.74-5.37-4.41-.54-9.02,1.08-13.7,4.81-12.29,9.82-22.5,5.23-26.36,2.77l-.11,20.9Z"/>
      <path class="cls-1" d="M257.47,141.61c-7.62,0-12.59-4.38-12.67-4.45l-.33-.3.14-26,1.66,1.5c.45.4,11.16,9.76,25.43-1.64,5.12-4.09,10.25-5.85,15.22-5.23,7.01.88,11.09,6.17,11.26,6.39l.21.27-.14,26.59-1.78-2.33s-3.78-4.86-9.94-5.62c-4.41-.54-9.02,1.08-13.7,4.81-5.71,4.56-10.97,6.01-15.36,6.01ZM246.48,135.95c1.96,1.56,12.04,8.51,25.1-1.92,5.12-4.09,10.25-5.85,15.22-5.23,4.39.55,7.63,2.83,9.48,4.51l.11-20.47c-.86-1-4.39-4.71-9.74-5.37-4.41-.54-9.02,1.08-13.7,4.81-12.29,9.82-22.5,5.23-26.36,2.77l-.11,20.9Z"/>
    </g>
  </g>
</svg>