<?xml version="1.0" encoding="UTF-8"?>
<svg id="Layer_2" data-name="Layer 2" xmlns="http://www.w3.org/2000/svg" viewBox="0 0 50 50">
  <defs>
    <style>
      .cls-1 {
        fill: #9ac6c5;
      }
    </style>
  </defs>
  <g id="Layer_1-2" data-name="Layer 1">
    <path class="cls-1" d="M25,0C11.19,0,0,11.19,0,25s11.19,25,25,25,25-11.19,25-25S38.81,0,25,0ZM21.74,13.16s0,0,0,0c.15-.2.29-.41.46-.62,2.58-3.28,5.35-5.72,7.8-7.52-.03.62-.07,1.27-.12,1.92-.02.29-.05.58-.07.87-.05.47-.1.94-.15,1.42-.23,1.95-.57,4-1.07,6.15-.06.27-.14.53-.2.8,0,0,0,0,0,0-.1.41-.22.82-.33,1.22-2.35-1.08-4.7-2.15-7.05-3.23.24-.34.49-.69.74-1.03ZM31.57,41.98l-3.57-5.34c-.4,2.68-.94,5.05-1.48,7.03-.24-.16-.67-.38-1.25-.45-1.04-.12-1.83.36-2.06.52-.74-1.72-1.73-4.32-2.5-7.56l-3.89,5.8s-2.3-6.22,2.95-11.17c-.12-1.09-.2-2.22-.24-3.39h0s0,0,0,0c-.02-.71-.02-1.44,0-2.17,0-.08,0-.15,0-.23.02-.75.06-1.51.13-2.29,0-.04,0-.08.01-.12.06-.69.15-1.39.25-2.09.03-.18.05-.37.08-.55.05-.35.11-.7.18-1.05h7.75c.69,4.25.84,8.25.66,11.87,5.29,4.96,2.98,11.2,2.98,11.2Z"/>
  </g>
</svg>