<?xml version="1.0" encoding="UTF-8"?>
<svg id="Layer_2" data-name="Layer 2" xmlns="http://www.w3.org/2000/svg" viewBox="0 0 50 50">
  <defs>
    <style>
      .cls-1 {
        fill: #a4a58d;
      }
    </style>
  </defs>
  <g id="Layer_1-2" data-name="Layer 1">
    <path class="cls-1" d="M26.56.05c-.52-.03-1.04-.05-1.56-.05s-1.04.02-1.56.05C15.63.04,7.81.02,0,0v50c7.81-.02,15.63-.04,23.44-.05.52.03,1.04.05,1.56.05s1.04-.02,1.56-.05c7.81.02,15.63.04,23.44.05V0c-7.81.02-15.63.04-23.44.05ZM36.51,37.23H11.11c0-6.57,4.99-11.98,11.4-12.64v-14.01c0-.36.29-.65.65-.65s.65.29.65.65v.81c.66.51,1.75,1.17,3.12,1.21.94.03,2.02.45,4.68-1.68,4.4-3.52,7.28.29,7.28.29l-.04,6.78s-2.88-3.8-7.28-.29c-4.4,3.52-7.77.47-7.77.47v6.36c7.01,0,12.7,5.69,12.7,12.7Z"/>
  </g>
</svg>