<?xml version="1.0" encoding="UTF-8"?>
<svg id="Layer_2" data-name="Layer 2" xmlns="http://www.w3.org/2000/svg" viewBox="0 0 50 50">
  <defs>
    <style>
      .cls-1 {
        fill: #fff;
      }
    </style>
  </defs>
  <g id="Layer_1-2" data-name="Layer 1">
    <path class="cls-1" d="M25,0C11.19,0,0,11.19,0,25s11.19,25,25,25,25-11.19,25-25S38.81,0,25,0ZM33.66,34.56c-1.77,1.74-4.17,2.65-7.45,2.65-5.21,0-9.16-3-10.75-7.52h-5.66v-3.84h4.91c-.01-.27-.02-.55-.02-.83,0-.3.01-.6.03-.89h-5v-3.84h5.74c1.57-4.51,5.44-7.52,10.75-7.52,2.59,0,4.83.63,6.44,1.83,2.11,1.55,3.35,3.85,3.63,6.5h-5.37c-.32-2.21-2.08-3.85-4.73-3.85-2.37,0-4.03,1.17-4.99,3.03h3.48v3.84h-4.45c-.02.29-.03.59-.03.89,0,.28,0,.56.03.83h4.54v3.84h-3.5c1.03,1.9,2.75,3.07,4.96,3.07,2.87,0,4.64-1.86,4.89-4.29h5.4c-.16,2.33-1.23,4.51-2.84,6.09Z"/>
  </g>
</svg>