<?xml version="1.0" encoding="UTF-8"?>
<svg id="Layer_2" data-name="Layer 2" xmlns="http://www.w3.org/2000/svg" viewBox="0 0 50 50">
  <defs>
    <style>
      .cls-1 {
        fill: #82a0bc;
      }
    </style>
  </defs>
  <g id="Layer_1-2" data-name="Layer 1">
    <g>
      <polygon class="cls-1" points="32.73 26.97 32.73 25.65 32.73 25.64 32.73 18.8 29.4 22.89 32.73 26.97"/>
      <path class="cls-1" d="M18.21,25.64h0v.62l3.03-3.72-3.03-3.72v6.83Z"/>
      <path class="cls-1" d="M50,0l-23.02.08h0C26.33.03,25.67,0,25,0H0v25h0v25l23.44-.05c.52.03,1.04.05,1.56.05s1.04-.02,1.56-.05l23.44.05v-25h0c0-.76-.04-1.51-.11-2.25l.11.14V0ZM34.37,25.65v7.63c0,.45-.37.82-.82.82s-.82-.37-.82-.82v-5.03s0,0,0,0c-.35.29-.87.23-1.15-.12l-3.72-4.56v6.83h0v7.64c0,.45-.37.82-.82.82s-.82-.37-.82-.82v-7.63h-2.08v7.63c0,.45-.37.82-.82.82s-.82-.37-.82-.82v-7.63h0v-6.75s-.04,0-.06-.01l-3.65,4.48c-.15.18-.36.28-.58.29v4.85c0,.45-.37.82-.82.82s-.82-.37-.82-.82v-7.63h-2.08v7.63c0,.45-.37.82-.82.82s-.82-.37-.82-.82v-7.63h0v-6.84l-3.71,4.56c-.29.35-.8.4-1.15.12-.35-.29-.4-.8-.12-1.15l4.83-5.92c.04-.05.1-.09.15-.13v-.02c.46-.34,1.34-.89,2.52-.94,1.35-.05,2.37.59,2.83.94v.03c.05.04.11.07.16.13l3.93,4.82.05-.06c.04-.05.1-.09.15-.13v-.02c.46-.34,1.34-.89,2.52-.94,1.35-.05,2.37.59,2.83.94v.03c.05.04.11.07.16.13l.33.41,4.23-5.19c.04-.05.1-.09.15-.13v-.02c.46-.34,1.34-.89,2.52-.94,1.35-.05,2.37.59,2.83.94v.03c.05.04.11.07.16.13l4.83,5.92c.29.35.23.87-.12,1.15-.35.29-.87.23-1.15-.12l-3.72-4.56v6.83h0v7.64c0,.45-.37.82-.82.82s-.82-.37-.82-.82v-7.63h-2.08ZM13.74,12.64c0-.99.81-1.8,1.8-1.8s1.8.81,1.8,1.8-.81,1.8-1.8,1.8-1.8-.81-1.8-1.8ZM33.61,12.64c0-.99.81-1.8,1.8-1.8s1.8.81,1.8,1.8-.81,1.8-1.8,1.8-1.8-.81-1.8-1.8ZM25.18,15.61c.99,0,1.8.81,1.8,1.8s-.81,1.8-1.8,1.8-1.8-.81-1.8-1.8.81-1.8,1.8-1.8Z"/>
    </g>
  </g>
</svg>