<?xml version="1.0" encoding="UTF-8"?>
<svg id="Layer_2" data-name="Layer 2" xmlns="http://www.w3.org/2000/svg" viewBox="0 0 50 50">
  <defs>
    <style>
      .cls-1 {
        fill: #fff;
      }
    </style>
  </defs>
  <g id="Layer_1-2" data-name="Layer 1">
    <path class="cls-1" d="M25,0C11.19,0,0,11.19,0,25s11.19,25,25,25,25-11.19,25-25S38.81,0,25,0ZM39.59,13.63c.12.18.08.43-.1.55l-5.42,3.68c-.18.12-.43.08-.55-.1-.12-.18-.08-.43.1-.55l5.42-3.68c.18-.12.43-.08.55.1ZM31.94,16.19l2.31-6.13c.08-.2.3-.31.51-.23.2.08.31.3.23.51l-2.31,6.13c-.08.2-.3.31-.51.23-.2-.08-.31-.3-.23-.51ZM17.45,17.53c1.43-5.98,6.24-5.84,6.58-5.82l-4.54-5.82c-.3-.38-.23-.93.15-1.22.38-.3.93-.23,1.22.15l9.69,12.42c.3.38.23.93-.15,1.22-.38.3-.93.23-1.22-.15l-.43-.55c-.94,0-2.37.17-3.61,1.08-.87.63-2.11,1.01-3.01,4.76-1.48,6.2-6.69,4.81-6.69,4.81l-4.68-6.07s5.21,1.39,6.69-4.81ZM7,30.81c-.03-.22.13-.41.35-.44l6.5-.77c.22-.03.41.13.44.35s-.13.41-.35.44l-6.5.77c-.22.03-.41-.13-.44-.35ZM9.04,35.82c-.12-.18-.08-.43.1-.55l5.42-3.68c.18-.12.43-.08.55.1.12.18.08.43-.1.55l-5.42,3.68c-.18.12-.43.08-.55-.1ZM16.68,33.27l-2.31,6.13c-.08.2-.3.31-.51.23-.2-.08-.31-.3-.23-.51l2.31-6.13c.08-.2.3-.31.51-.23.2.08.31.3.23.51ZM31.58,32.01c-1.43,5.98-6.24,5.84-6.58,5.82l4.54,5.82c.3.38.23.93-.15,1.22-.38.3-.93.23-1.22-.15l-9.69-12.42c-.3-.38-.23-.93.15-1.22s.93-.23,1.22.15l.43.55c.94,0,2.37-.17,3.61-1.08.87-.63,2.11-1.01,3.01-4.76,1.48-6.2,6.69-4.81,6.69-4.81l4.68,6.07s-5.21-1.39-6.69,4.81ZM41.28,19.08l-6.5.77c-.22.03-.41-.13-.44-.35s.13-.41.35-.44l6.5-.77c.22-.03.41.13.44.35s-.13.41-.35.44Z"/>
  </g>
</svg>