<?xml version="1.0" encoding="UTF-8"?>
<svg id="Layer_2" data-name="Layer 2" xmlns="http://www.w3.org/2000/svg" viewBox="0 0 50 50">
  <defs>
    <style>
      .cls-1 {
        fill: #fff;
      }
    </style>
  </defs>
  <g id="Layer_1-2" data-name="Layer 1">
    <path class="cls-1" d="M25,0C11.19,0,0,11.19,0,25s11.19,25,25,25,25-11.19,25-25S38.81,0,25,0ZM25.76,7.11c3.25.04,5.6,1.33,6.6,1.95-1.4,3.57-2.79,7.15-4.19,10.72-.57-.3-1.74-.8-3.3-.8-1.46,0-2.57.45-3.14.73l-3.33-10.38c.95-.64,3.62-2.27,7.36-2.22ZM13.99,39.63c-1.03-.5-3.77-2-5.59-5.28-1.58-2.84-1.64-5.52-1.6-6.69,3.79-.57,7.59-1.14,11.38-1.71.03.64.17,1.91.95,3.26.73,1.27,1.67,2.01,2.2,2.36-2.45,2.69-4.89,5.37-7.34,8.06ZM25,30.29c-2.5,0-4.52-2.02-4.52-4.52s2.02-4.52,4.52-4.52,4.52,2.02,4.52,4.52-2.02,4.52-4.52,4.52ZM41.57,34.36c-1.82,3.27-4.56,4.77-5.59,5.28-2.45-2.69-4.89-5.37-7.34-8.06.53-.36,1.47-1.1,2.2-2.36.78-1.35.92-2.62.95-3.26,3.79.57,7.59,1.14,11.38,1.71.04,1.17-.02,3.85-1.6,6.69Z"/>
  </g>
</svg>